<svg xmlns="http://www.w3.org/2000/svg" viewBox="0 0 288 288"><path fill="#ffff10" d="M186.18 224.41c-8.62 0-17.07-2.1-25.13-6.23-7.89-4.05-14.97-9.83-21.05-17.2-12.74-15.44-19.76-36.55-19.76-59.44s6.99-44.41 19.68-60.4c12.4-15.63 29.27-24.59 46.26-24.59 7.36 0 14.52 1.65 21.29 4.89 1.61.77 2.83 2.13 3.42 3.82s.49 3.51-.28 5.12a6.739 6.739 0 0 1-6.05 3.8c-1.01 0-1.98-.22-2.9-.66-4.94-2.37-10.15-3.57-15.49-3.57-12.88 0-25.92 7.11-35.76 19.52-10.82 13.63-16.78 32.12-16.78 52.06s5.93 37.86 16.7 50.91c9.73 11.79 22.8 18.56 35.84 18.56s25.65-7.01 34.56-19.73c2.24-3.21 3.62-6.95 3.96-10.83a6.66 6.66 0 0 1 6.67-6.1c.2 0 .4 0 .6.03 3.68.33 6.41 3.59 6.08 7.28-.56 6.21-2.75 12.2-6.33 17.32-5.6 8-12.34 14.27-20.05 18.65-7.93 4.51-16.51 6.79-25.49 6.79Z"/><path fill="#17a24f" d="M56.46 187.98c-3.48 0-6.35-2.62-6.67-6.09-.89-9.66 2.25-19.33 8.62-26.55 6.73-7.62 16.5-13.62 29.05-17.83 14.91-5 33.98-7.54 56.68-7.54s41.36 2.48 56.14 7.38c12.49 4.14 22.22 10.04 28.95 17.55 6.49 7.25 9.7 16.99 8.83 26.74a6.66 6.66 0 0 1-6.67 6.1c-.2 0-.4 0-.61-.03a6.655 6.655 0 0 1-4.54-2.38 6.643 6.643 0 0 1-1.53-4.9c.54-6.06-1.45-12.11-5.46-16.6-8.36-9.34-28.17-20.47-75.1-20.47s-67.3 11.33-75.69 20.83c-3.94 4.46-5.88 10.45-5.33 16.45.34 3.68-2.38 6.95-6.06 7.29-.21.02-.42.03-.62.03Z"/><path fill="#f60d0d" d="M101.55 224.41c-8.94 0-17.49-2.27-25.4-6.74-7.68-4.34-14.41-10.57-20-18.51a35.844 35.844 0 0 1-6.37-17.27c-.34-3.68 2.38-6.95 6.06-7.29a6.664 6.664 0 0 1 7.28 6.06c.36 3.87 1.73 7.59 3.97 10.78 8.9 12.62 21.13 19.57 34.45 19.57s26.11-6.76 35.85-18.56c10.77-13.05 16.7-31.13 16.7-50.91s-5.96-38.44-16.78-52.07c-9.85-12.4-22.88-19.52-35.76-19.52-5.34 0-10.55 1.2-15.49 3.57-.91.44-1.89.66-2.9.66-2.56 0-4.94-1.49-6.05-3.81a6.689 6.689 0 0 1-.28-5.12 6.667 6.667 0 0 1 3.42-3.82c6.77-3.25 13.93-4.89 21.29-4.89 17 0 33.86 8.96 46.26 24.59 12.69 15.99 19.68 37.44 19.68 60.4s-7.02 44-19.76 59.44c-6.08 7.36-13.16 13.15-21.05 17.2-8.06 4.14-16.52 6.23-25.13 6.23Z"/></svg>