<svg xmlns="http://www.w3.org/2000/svg" viewBox="0 0 288 288"><path d="M186.18 224.41c-8.62 0-17.07-2.1-25.13-6.23-7.89-4.05-14.97-9.83-21.05-17.2-12.74-15.44-19.76-36.55-19.76-59.44s6.99-44.41 19.68-60.4c12.4-15.63 29.27-24.59 46.26-24.59 7.36 0 14.52 1.65 21.29 4.89 1.61.77 2.83 2.13 3.42 3.82s.49 3.51-.28 5.12a6.739 6.739 0 0 1-6.05 3.8c-1.01 0-1.98-.22-2.9-.66-4.94-2.37-10.15-3.57-15.49-3.57-12.88 0-25.92 7.11-35.76 19.52-10.82 13.63-16.78 32.12-16.78 52.06s5.93 37.86 16.7 50.91c9.73 11.79 22.8 18.56 35.84 18.56s25.65-7.01 34.56-19.73c2.24-3.21 3.62-6.95 3.96-10.83a6.66 6.66 0 0 1 6.67-6.1c.2 0 .4 0 .6.03 3.68.33 6.41 3.59 6.08 7.28-.56 6.21-2.75 12.2-6.33 17.32-5.6 8-12.34 14.27-20.05 18.65-7.93 4.51-16.51 6.79-25.49 6.79Z"/></svg>